<?xml version="1.0" encoding="UTF-8" standalone="no"?>
<svg
   width="156"
   height="156"
   viewBox="0 0 156 156"
   version="1.1"
   xmlns="http://www.w3.org/2000/svg"
   xmlns:svg="http://www.w3.org/2000/svg">
     <g transform="translate(-32.253934,-78.719389)">
      <path
        fill="currentColor"
        style="stroke-width:0.264583"
        d="m 105.78317,235.31433 c -0.58208,-0.0573 -2.36802,-0.23252 -3.96875,-0.38932 -1.60072,-0.15679 -4.689329,-0.64358 -6.863559,-1.08174 -23.74804,-4.78584 -44.02947,-20.4291 -54.66546,-42.164 -1.2818,-2.61937 -2.76132,-5.9333 -3.28784,-7.36428 -2.02092,-5.49252 -3.71445,-12.61643 -4.41333,-18.56488 -0.43947,-3.74044 -0.44065,-13.70695 -0.002,-17.4625 3.65708,-31.31564 25.35155,-57.28972 55.46187,-66.40267 3.62347,-1.09665 9.58657,-2.33603 13.638099,-2.83456 3.58659,-0.44132 14.14049,-0.44132 17.72708,0 26.69519,3.28478 49.38482,19.19733 61.30109,42.99129 3.99253,7.97214 6.62913,16.76223 7.79315,25.98135 0.43275,3.42749 0.43275,14.56418 0,17.99167 -2.96184,23.45807 -15.39167,43.5806 -34.90684,56.5103 -9.81562,6.5033 -21.48628,10.80471 -33.39365,12.30776 -2.97819,0.37593 -12.32354,0.68804 -14.41979,0.48158 z M 119.93839,221.583 c 3.79658,-0.58343 7.7722,-1.5463 11.24479,-2.72342 l 2.91042,-0.98656 -11.68788,-0.0689 c -6.42834,-0.0379 -17.02491,-0.0379 -23.547919,0 l -11.86004,0.0689 2.91041,0.98656 c 4.61734,1.56516 8.61263,2.40994 15.213549,3.21683 2.06078,0.25191 12.15381,-0.0842 14.81667,-0.49341 z m 35.20235,-17.05825 2.76536,-2.63264 -40.28282,-0.0132 -40.282809,-0.0132 v -4.10104 -4.10104 h 43.594079 43.59409 l 1.35778,-2.18282 c 4.83198,-7.76802 7.77935,-15.83058 9.26113,-25.33385 0.66248,-4.24874 0.66477,-13.98166 0.004,-18.25625 -1.70482,-11.03364 -5.90898,-21.21201 -12.29403,-29.76411 l -1.77671,-2.37973 -0.0671,36.18025 -0.0671,36.18026 H 117.7301 74.513281 l -1.1661,0.61562 c -0.64135,0.3386 -1.52328,1.12237 -1.95984,1.74173 l -0.79375,1.12611 -0.0803,5.60936 -0.0803,5.60936 0.75081,1.43722 c 0.61151,1.17055 1.01246,1.5739 2.161,2.1739 l 1.41019,0.7367 h 38.810169 38.81016 z m -95.268659,-47.57204 -0.006,-40.94427 -0.53502,0.66146 c -0.29432,0.3638 -1.3719,1.85208 -2.39463,3.30729 -5.66723,8.06372 -9.38997,17.51315 -10.99695,27.91354 -0.65722,4.25357 -0.65772,13.99697 -9.5e-4,18.25625 1.74104,11.29072 5.65172,20.72795 12.41679,29.96406 0.71947,0.98227 1.35639,1.78594 1.41537,1.78594 0.059,0 0.1046,-18.42492 0.10137,-40.94427 z m 12.57369,20.97282 c 1.11373,-0.2359 3.30222,-0.39411 5.49001,-0.39687 l 3.63802,-0.005 v -35.34139 -35.3414 l -3.81481,0.0857 c -3.75053,0.0842 -3.83379,0.099 -4.94063,0.87942 -0.6192,0.43656 -1.40284,1.31849 -1.74144,1.95984 l -0.61562,1.16609 v 33.69313 c 0,18.53102 0.0298,33.69276 0.0662,33.69276 0.0364,0 0.89964,-0.17652 1.91823,-0.39228 z M 150.36547,142.20219 V 106.88031 H 120.07068 89.775881 v 35.32188 35.32187 h 30.294799 30.29479 z m -33.87057,16.33802 -0.004,-2.57969 -9.52555,-6.83108 c -5.23906,-3.7571 -9.474989,-6.91226 -9.413179,-7.01146 0.0618,-0.0992 4.348469,-3.21647 9.525919,-6.92725 l 9.41356,-6.74687 0.004,-2.57969 c 0.002,-1.41883 0.0649,-2.57969 0.13999,-2.57969 0.075,0 0.87278,0.53578 1.77273,1.19063 0.89995,0.65484 1.70769,1.19062 1.79498,1.19062 0.0873,0 0.89502,-0.53578 1.79497,-1.19062 0.89995,-0.65485 1.69768,-1.19063 1.77273,-1.19063 0.0751,0 0.13803,1.16086 0.13995,2.57969 l 0.004,2.57969 9.52489,6.83281 c 5.23869,3.75805 9.47431,6.91321 9.4125,7.01146 -0.0618,0.0983 -4.34702,3.21474 -9.52268,6.92552 l -9.41031,6.74687 -0.006,2.57969 c -0.003,1.41883 -0.0671,2.57969 -0.14215,2.57969 -0.0751,0 -0.87279,-0.53578 -1.77273,-1.19063 -0.89995,-0.65484 -1.70769,-1.19062 -1.79498,-1.19062 -0.0873,0 -0.89502,0.53578 -1.79497,1.19062 -0.89995,0.65485 -1.69768,1.19063 -1.77273,1.19063 -0.0751,0 -0.13822,-1.16086 -0.14037,-2.57969 z m -0.57958,-18.0481 -0.078,-1.86552 -2.24896,1.60432 c -1.23693,0.88238 -2.34603,1.70061 -2.46466,1.81829 -0.11863,0.11768 0.8934,1.00438 2.24896,1.97044 l 2.46466,1.75648 0.078,-1.70924 c 0.0429,-0.94009 0.0429,-2.54873 0,-3.57477 z m 11.36525,3.34988 c 1.20055,-0.85741 2.18282,-1.59532 2.18282,-1.6398 0,-0.0774 -4.0103,-2.9815 -4.69636,-3.40092 -0.25829,-0.1579 -0.33073,0.58699 -0.33073,3.40092 0,2.81393 0.0724,3.55882 0.33073,3.40092 0.1819,-0.11121 1.313,-0.90371 2.51354,-1.76112 z m 6.68073,-47.66754 c 0,-0.30514 -7.12208,-2.35847 -10.58333,-3.05122 -8.85046,-1.77138 -16.77628,-1.7706 -25.664589,0.003 -3.45746,0.68973 -10.58333,2.74246 -10.58333,3.04871 0,0.0674 10.53703,0.12253 23.415619,0.12253 12.8786,0 23.41563,-0.0551 23.41563,-0.12253 z"/>
      </g>
</svg>
